HIERARCHY
ROOT Hips
{
  OFFSET 0.000000 0.000000 0.000000
  CHANNELS 6 Xposition Yposition Zposition Zrotation Xrotation Yrotation
  JOINT Spine
  {
    OFFSET 0.000000 10.000000 0.000000
    CHANNELS 3 Zrotation Xrotation Yrotation
    JOINT Chest
    {
      OFFSET 0.000000 15.000000 0.000000
      CHANNELS 3 Zrotation Xrotation Yrotation
      JOINT Neck
      {
        OFFSET 0.000000 15.000000 0.000000
        CHANNELS 3 Zrotation Xrotation Yrotation
        JOINT Head
        {
          OFFSET 0.000000 10.000000 0.000000
          CHANNELS 3 Zrotation Xrotation Yrotation
          End Site
          {
            OFFSET 0.0 0.0 0.0
          }
        }
      }
      JOINT LeftShoulder
      {
        OFFSET 20.000000 15.000000 0.000000
        CHANNELS 3 Zrotation Xrotation Yrotation
        JOINT LeftArm
        {
          OFFSET 15.000000 0.000000 0.000000
          CHANNELS 3 Zrotation Xrotation Yrotation
          JOINT LeftForeArm
          {
            OFFSET 25.000000 0.000000 0.000000
            CHANNELS 3 Zrotation Xrotation Yrotation
            JOINT LeftHand
            {
              OFFSET 20.000000 0.000000 0.000000
              CHANNELS 3 Zrotation Xrotation Yrotation
              End Site
              {
                OFFSET 0.0 0.0 0.0
              }
            }
          }
        }
      }
      JOINT RightShoulder
      {
        OFFSET -20.000000 15.000000 0.000000
        CHANNELS 3 Zrotation Xrotation Yrotation
        JOINT RightArm
        {
          OFFSET -15.000000 0.000000 0.000000
          CHANNELS 3 Zrotation Xrotation Yrotation
          JOINT RightForeArm
          {
            OFFSET -25.000000 0.000000 0.000000
            CHANNELS 3 Zrotation Xrotation Yrotation
            JOINT RightHand
            {
              OFFSET -20.000000 0.000000 0.000000
              CHANNELS 3 Zrotation Xrotation Yrotation
              End Site
              {
                OFFSET 0.0 0.0 0.0
              }
            }
          }
        }
      }
    }
  }
  JOINT LeftUpLeg
  {
    OFFSET 10.000000 -10.000000 0.000000
    CHANNELS 3 Zrotation Xrotation Yrotation
    JOINT LeftLeg
    {
      OFFSET 0.000000 -45.000000 0.000000
      CHANNELS 3 Zrotation Xrotation Yrotation
      JOINT LeftFoot
      {
        OFFSET 0.000000 -45.000000 0.000000
        CHANNELS 3 Zrotation Xrotation Yrotation
        JOINT LeftToeBase
        {
          OFFSET 0.000000 0.000000 10.000000
          CHANNELS 3 Zrotation Xrotation Yrotation
          End Site
          {
            OFFSET 0.0 0.0 0.0
          }
        }
      }
    }
  }
  JOINT RightUpLeg
  {
    OFFSET -10.000000 -10.000000 0.000000
    CHANNELS 3 Zrotation Xrotation Yrotation
    JOINT RightLeg
    {
      OFFSET 0.000000 -45.000000 0.000000
      CHANNELS 3 Zrotation Xrotation Yrotation
      JOINT RightFoot
      {
        OFFSET 0.000000 -45.000000 0.000000
        CHANNELS 3 Zrotation Xrotation Yrotation
        JOINT RightToeBase
        {
          OFFSET 0.000000 0.000000 10.000000
          CHANNELS 3 Zrotation Xrotation Yrotation
          End Site
          {
            OFFSET 0.0 0.0 0.0
          }
        }
      }
    }
  }
}
MOTION
Frames: 10
Frame Time: 0.033333
17.751145 1.988613 7.000256 0.000000 0.000000 0.000000 0.000000 0.000000 0.000000 0.000000 0.000000 0.000000 0.000000 0.000000 0.000000 0.000000 0.000000 0.000000 -64.716369 5.579333 -8.795473 -76.737333 5.995275 -7.568550 -100.916771 10.319705 -8.526838 -100.916771 10.319705 -8.526838 75.885140 -23.919223 -30.398293 -176.358997 172.137837 -49.644217 -171.103491 158.546721 -44.652129 -171.103491 158.546721 -44.652129 7.723746 -17.977735 1.223590 -18.012626 -22.373026 -3.590646 -178.860175 -179.640827 34.979607 -178.860175 -179.640827 34.979607 5.884536 14.742220 -0.761909 -0.316013 -16.068315 -0.044605 -0.521503 132.213564 -0.231026 -0.521503 132.213564 -0.231026
17.630306 1.979692 6.999827 0.000000 0.000000 0.000000 0.000000 0.000000 0.000000 0.000000 0.000000 0.000000 0.000000 0.000000 0.000000 0.000000 0.000000 0.000000 -65.160989 4.957051 -7.749946 -75.917338 4.026152 -5.159544 -97.345557 6.581985 -5.789401 -97.345557 6.581985 -5.789401 74.399798 -26.843763 -34.905678 -171.689342 163.136305 -52.219906 -172.845418 163.263525 -46.050288 -172.845418 163.263525 -46.050288 7.987421 -17.497124 1.231124 -17.805334 -22.322344 -3.540434 -163.102538 -173.951969 39.156645 -163.102538 -173.951969 39.156645 6.371031 9.905048 -0.552639 -0.614737 -14.605236 -0.078779 1.043327 134.430052 0.438262 1.043327 134.430052 0.438262
17.600783 1.965640 6.996175 0.000000 0.000000 0.000000 0.000000 0.000000 0.000000 0.000000 0.000000 0.000000 0.000000 0.000000 0.000000 0.000000 0.000000 0.000000 -64.921775 4.734506 -7.436673 -73.724094 3.265158 -4.353870 -91.050355 7.289818 -7.157737 -91.050355 7.289818 -7.157737 74.216107 -28.469973 -37.076585 -167.398366 155.719225 -54.340736 -168.568621 154.627130 -47.942200 -168.568621 154.627130 -47.942200 9.492381 -15.404530 1.286693 -17.233053 -18.730891 -2.863263 -140.575695 -166.142115 37.472011 -140.575695 -166.142115 37.472011 6.386708 10.127553 -0.566511 -0.295636 -14.171238 -0.036748 5.765871 136.005756 2.330872 5.765871 136.005756 2.330872
17.616852 1.961393 6.972718 0.000000 0.000000 0.000000 0.000000 0.000000 0.000000 0.000000 0.000000 0.000000 0.000000 0.000000 0.000000 0.000000 0.000000 0.000000 -63.711993 4.836717 -7.776496 -69.925391 2.941107 -4.205197 -83.370968 7.129573 -8.003447 -83.370968 7.129573 -8.003447 76.069563 -29.691614 -37.437482 -165.867954 151.926657 -52.744604 -169.125721 155.235896 -46.879202 -169.125721 155.235896 -46.879202 10.925653 -16.314656 1.570770 -15.429812 -19.112299 -2.612973 -131.813017 -164.557039 33.734725 -131.813017 -164.557039 33.734725 6.497555 9.987153 -0.568333 -0.061297 -14.121852 -0.007593 7.835239 135.952473 3.173560 7.835239 135.952473 3.173560
17.604211 1.953604 6.817478 0.000000 0.000000 0.000000 0.000000 0.000000 0.000000 0.000000 0.000000 0.000000 0.000000 0.000000 0.000000 0.000000 0.000000 0.000000 -60.442385 4.699885 -8.059556 -68.427001 3.134515 -4.608626 -83.378176 7.042535 -7.904807 -83.378176 7.042535 -7.904807 76.980994 -28.111820 -34.954132 175.224724 -170.005134 -50.987043 177.442701 -173.880253 -45.325815 177.442701 -173.880253 -45.325815 12.183273 -16.603382 1.784299 -14.902522 -19.409190 -2.562603 -126.226098 -164.026483 30.934893 -126.226098 -164.026483 30.934893 6.818507 9.919870 -0.592432 -0.165623 -13.884222 -0.020166 7.057424 135.691041 2.876577 7.057424 135.691041 2.876577
17.605261 1.806240 6.194315 0.000000 0.000000 0.000000 0.000000 0.000000 0.000000 0.000000 0.000000 0.000000 0.000000 0.000000 0.000000 0.000000 0.000000 0.000000 -56.347960 4.745787 -8.847960 -65.584409 2.965682 -4.601765 -77.073650 5.813538 -7.295381 -77.073650 5.813538 -7.295381 77.891677 -23.628388 -29.019869 168.253056 -155.949832 -51.555053 175.526862 -169.048224 -44.332179 175.526862 -169.048224 -44.332179 13.057315 -17.210807 1.984391 -14.853572 -20.578169 -2.711126 -125.151767 -165.216257 28.074948 -125.151767 -165.216257 28.074948 6.885736 5.133566 -0.309051 -0.107850 -15.941164 -0.015101 6.619700 134.076193 2.807265 6.619700 134.076193 2.807265
17.619233 1.656965 5.291442 0.000000 0.000000 0.000000 0.000000 0.000000 0.000000 0.000000 0.000000 0.000000 0.000000 0.000000 0.000000 0.000000 0.000000 0.000000 -53.598679 3.801862 -7.518578 -64.569770 1.800122 -2.848823 -73.767686 3.152482 -4.200357 -73.767686 3.152482 -4.200357 78.055898 -22.089874 -27.078640 168.495524 -158.391043 -55.654022 176.197691 -171.390480 -47.592135 176.197691 -171.390480 -47.592135 14.094500 -17.348112 2.160884 -14.780498 -20.753835 -2.721173 -117.611148 -165.660875 23.472406 -117.611148 -165.660875 23.472406 6.620696 3.394163 -0.196379 0.066777 -15.879701 0.009313 6.234376 134.201821 2.635523 6.234376 134.201821 2.635523
17.645281 1.535791 4.375498 0.000000 0.000000 0.000000 0.000000 0.000000 0.000000 0.000000 0.000000 0.000000 0.000000 0.000000 0.000000 0.000000 0.000000 0.000000 -52.553215 3.564779 -7.212990 -62.922335 1.322891 -2.161889 -70.430792 2.491335 -3.529119 -70.430792 2.491335 -3.529119 78.897676 -20.400179 -24.669436 173.627272 -169.327728 -61.591291 -178.898277 177.694008 -51.069064 -178.898277 177.694008 -51.069064 15.485277 -17.550797 2.404745 -15.016628 -20.954451 -2.792447 -94.463095 -166.520699 14.561112 -94.463095 -166.520699 14.561112 6.186767 3.512853 -0.189902 -0.258099 -15.481828 -0.035084 2.652795 134.028519 1.125431 2.652795 134.028519 1.125431
17.662126 1.424714 3.814060 0.000000 0.000000 0.000000 0.000000 0.000000 0.000000 0.000000 0.000000 0.000000 0.000000 0.000000 0.000000 0.000000 0.000000 0.000000 -51.741584 2.713462 -5.592015 -61.870212 -0.028817 0.048082 -68.227722 0.277360 -0.409444 -68.227722 0.277360 -0.409444 79.220447 -20.280878 -24.390461 174.381065 -171.041882 -64.131729 -177.947988 175.816880 -52.244846 -177.947988 175.816880 -52.244846 17.849689 -17.531195 2.774241 -13.979633 -20.593012 -2.551902 -59.272720 -169.108346 6.209110 -59.272720 -169.108346 6.209110 5.760450 1.828889 -0.092023 -1.047736 -16.537036 -0.152264 -0.895035 133.317719 -0.386231 -0.895035 133.317719 -0.386231
17.664751 1.278429 3.417340 0.000000 0.000000 0.000000 0.000000 0.000000 0.000000 0.000000 0.000000 0.000000 0.000000 0.000000 0.000000 0.000000 0.000000 0.000000 -51.413482 1.840005 -3.821009 -61.356031 -0.130863 0.220591 -66.225770 -0.316481 0.485241 -66.225770 -0.316481 0.485241 78.393571 -20.381985 -24.862954 169.374077 -163.741344 -66.130705 177.651951 -175.374337 -53.807269 177.651951 -175.374337 -53.807269 22.078740 -13.024759 2.551624 -11.579283 -15.823436 -1.614565 44.966376 -170.603650 -3.896103 44.966376 -170.603650 -3.896103 5.531940 2.052251 -0.099161 -2.800696 -15.776005 -0.388107 -5.458532 133.511241 -2.345983 -5.458532 133.511241 -2.345983
